<?xml version="1.0" encoding="UTF-8" standalone="no"?><!DOCTYPE svg PUBLIC "-//W3C//DTD SVG 1.1//EN" "http://www.w3.org/Graphics/SVG/1.1/DTD/svg11.dtd"><svg width="100%" height="100%" viewBox="0 0 47 46" version="1.1" xmlns="http://www.w3.org/2000/svg" xmlns:xlink="http://www.w3.org/1999/xlink" xml:space="preserve" xmlns:serif="http://www.serif.com/" style="fill-rule:evenodd;clip-rule:evenodd;stroke-linejoin:round;stroke-miterlimit:1.41421;"><path id="Github_1_" d="M23.1,0c-12.8,0 -23.1,10.3 -23.1,23.1c0,10.2 6.6,18.9 15.8,21.9c1.2,0.2 1.5,-0.5 1.5,-1.1c0,-0.5 0,-2.1 0,-4c-6.4,1.4 -7.8,-3 -7.8,-3c-1,-2.7 -2.6,-3.4 -2.6,-3.4c-2.1,-1.4 0.2,-1.4 0.2,-1.4c2.3,0.2 3.5,2.4 3.5,2.4c2.1,3.5 5.4,2.5 6.7,1.9c0.2,-1.5 0.8,-2.5 1.5,-3.1c-5.1,-0.6 -10.5,-2.6 -10.5,-11.4c0,-2.5 0.9,-4.6 2.4,-6.2c-0.2,-0.6 -1,-2.9 0.2,-6.1c0,0 1.9,-0.6 6.3,2.4c1.8,-0.5 3.8,-0.8 5.8,-0.8c2,0 3.9,0.3 5.8,0.8c4.4,-3 6.3,-2.4 6.3,-2.4c1.3,3.2 0.5,5.5 0.2,6.1c1.5,1.6 2.4,3.7 2.4,6.2c0,8.9 -5.4,10.8 -10.5,11.4c0.8,0.7 1.6,2.1 1.6,4.3c0,2.9 0,5.6 0,6.4c0,0.6 0.4,1.3 1.5,1.1c9.2,-3.1 15.8,-11.7 15.8,-21.9c0.1,-12.9 -10.2,-23.2 -23,-23.2Z" style="fill:#fff;fill-rule:nonzero;"/></svg>