<?xml version="1.0" encoding="UTF-8" standalone="no"?><!DOCTYPE svg PUBLIC "-//W3C//DTD SVG 1.1//EN" "http://www.w3.org/Graphics/SVG/1.1/DTD/svg11.dtd"><svg width="100%" height="100%" viewBox="0 0 35 36" version="1.1" xmlns="http://www.w3.org/2000/svg" xmlns:xlink="http://www.w3.org/1999/xlink" xml:space="preserve" xmlns:serif="http://www.serif.com/" style="fill-rule:evenodd;clip-rule:evenodd;stroke-linejoin:round;stroke-miterlimit:1.41421;"><path id="linkedin" d="M13,12.2l6.5,0l0,3.3c0.9,-1.9 3.3,-3.6 6.9,-3.6c6.9,0 8.6,3.7 8.6,10.6l0,12.7l-7,0l0,-11.1c0,-3.9 -0.9,-6.1 -3.3,-6.1c-3.3,0 -4.7,2.4 -4.7,6.1l0,11.1l-7,0l0,-23Zm-12,22.8l7,0l0,-23l-7,0l0,23Zm8,-30.5c0,2.5 -2,4.5 -4.5,4.5c-2.5,0 -4.5,-2 -4.5,-4.5c0,-2.5 2,-4.5 4.5,-4.5c2.5,0 4.5,2 4.5,4.5Z" style="fill:#fff;fill-rule:nonzero;"/></svg>